<?xml version="1.0" encoding="utf-8"?>
<!-- Generator: Adobe Illustrator 26.5.0, SVG Export Plug-In . SVG Version: 6.00 Build 0)  -->
<svg version="1.1" id="Layer_1" xmlns="http://www.w3.org/2000/svg" xmlns:xlink="http://www.w3.org/1999/xlink" x="0px" y="0px"
	 viewBox="0 0 554.85 64.62" style="enable-background:new 0 0 554.85 64.62;" xml:space="preserve">
<style type="text/css">
	.st0{fill:#EF3E25;}
</style>
<g>
	<path d="M43.47,52.74H19.89L16.11,63.9H0L22.86,0.72h17.82L63.54,63.9H47.25L43.47,52.74z M39.51,40.86l-7.83-23.13l-7.74,23.13
		H39.51z"/>
	<path d="M85.59,0.72v37.8c0,3.78,0.93,6.69,2.79,8.73c1.86,2.04,4.59,3.06,8.19,3.06c3.6,0,6.36-1.02,8.28-3.06
		c1.92-2.04,2.88-4.95,2.88-8.73V0.72h15.39v37.71c0,5.64-1.2,10.41-3.6,14.31c-2.4,3.9-5.62,6.84-9.67,8.82
		c-4.05,1.98-8.57,2.97-13.54,2.97c-4.98,0-9.44-0.97-13.37-2.92c-3.93-1.95-7.04-4.89-9.31-8.82c-2.28-3.93-3.42-8.71-3.42-14.35
		V0.72H85.59z"/>
	<path d="M175.86,20.7c-1.14-2.1-2.78-3.7-4.9-4.81c-2.13-1.11-4.63-1.67-7.52-1.67c-4.98,0-8.97,1.64-11.97,4.91
		c-3,3.27-4.5,7.64-4.5,13.09c0,5.82,1.58,10.37,4.73,13.64c3.15,3.27,7.48,4.9,13,4.9c3.78,0,6.97-0.96,9.59-2.88
		c2.61-1.92,4.51-4.68,5.71-8.28h-19.53V28.26h33.48v14.31c-1.14,3.84-3.08,7.41-5.8,10.71c-2.73,3.3-6.2,5.97-10.39,8.01
		c-4.2,2.04-8.94,3.06-14.22,3.06c-6.24,0-11.8-1.36-16.7-4.1c-4.89-2.73-8.7-6.52-11.43-11.38c-2.73-4.86-4.09-10.41-4.09-16.65
		c0-6.24,1.36-11.8,4.09-16.69c2.73-4.89,6.53-8.7,11.38-11.43C151.65,1.37,157.2,0,163.44,0c7.56,0,13.93,1.83,19.12,5.49
		c5.19,3.66,8.62,8.73,10.3,15.21H175.86z"/>
	<path class="st0" d="M203.08,62.23c-1.71-1.59-2.57-3.56-2.57-5.9c0-2.4,0.86-4.41,2.57-6.03c1.71-1.62,3.92-2.43,6.62-2.43
		c2.64,0,4.81,0.81,6.52,2.43c1.71,1.62,2.57,3.63,2.57,6.03c0,2.34-0.86,4.31-2.57,5.9c-1.71,1.59-3.88,2.39-6.52,2.39
		C207,64.62,204.79,63.83,203.08,62.23z"/>
	<path d="M276.75,19.35c-1.74-3.66-4.26-6.49-7.56-8.51c-3.3-2.01-7.14-3.01-11.52-3.01c-4.38,0-8.33,1.01-11.83,3.01
		c-3.51,2.01-6.27,4.89-8.28,8.64c-2.01,3.75-3.01,8.09-3.01,13c0,4.92,1,9.24,3.01,12.96c2.01,3.72,4.77,6.59,8.28,8.6
		c3.51,2.01,7.45,3.02,11.83,3.02c6.12,0,11.16-1.83,15.12-5.49c3.96-3.66,6.27-8.61,6.93-14.85H254.7v-6.66h33.75v6.3
		c-0.48,5.16-2.1,9.89-4.86,14.17c-2.76,4.29-6.39,7.68-10.89,10.17c-4.5,2.49-9.51,3.73-15.03,3.73c-5.82,0-11.13-1.36-15.93-4.1
		c-4.8-2.73-8.6-6.52-11.39-11.38s-4.18-10.35-4.18-16.47c0-6.12,1.39-11.62,4.18-16.51c2.79-4.89,6.58-8.7,11.39-11.43
		c4.8-2.73,10.11-4.1,15.93-4.1c6.66,0,12.55,1.65,17.68,4.95c5.13,3.3,8.87,7.95,11.21,13.95H276.75z"/>
	<path d="M307.44,57.24h21.96v6.66h-30.15V1.17h8.19V57.24z"/>
	<path d="M350.64,60.44c-4.8-2.73-8.6-6.54-11.39-11.43c-2.79-4.89-4.18-10.4-4.18-16.52c0-6.12,1.39-11.62,4.18-16.51
		c2.79-4.89,6.58-8.7,11.39-11.43c4.8-2.73,10.11-4.1,15.93-4.1c5.88,0,11.22,1.37,16.02,4.1c4.8,2.73,8.58,6.52,11.34,11.38
		c2.76,4.86,4.14,10.38,4.14,16.56c0,6.18-1.38,11.7-4.14,16.56c-2.76,4.86-6.54,8.66-11.34,11.39c-4.8,2.73-10.14,4.09-16.02,4.09
		C360.75,64.53,355.44,63.17,350.64,60.44z M378.4,54.36c3.51-2.04,6.27-4.95,8.28-8.73c2.01-3.78,3.01-8.16,3.01-13.14
		c0-5.04-1.01-9.43-3.01-13.19c-2.01-3.75-4.76-6.64-8.24-8.68c-3.48-2.04-7.44-3.06-11.88-3.06c-4.44,0-8.4,1.02-11.88,3.06
		c-3.48,2.04-6.23,4.94-8.24,8.68c-2.01,3.75-3.01,8.15-3.01,13.19c0,4.98,1,9.36,3.01,13.14c2.01,3.78,4.77,6.69,8.28,8.73
		c3.51,2.04,7.45,3.06,11.83,3.06C370.95,57.42,374.89,56.4,378.4,54.36z"/>
	<path d="M446.53,34.38c1.89,1.5,3.39,3.36,4.5,5.58c1.11,2.22,1.67,4.59,1.67,7.11c0,3.18-0.81,6.05-2.43,8.6
		c-1.62,2.55-3.98,4.56-7.07,6.03c-3.09,1.47-6.74,2.21-10.93,2.21h-23.4V1.17h22.5c4.26,0,7.89,0.71,10.89,2.11
		c3,1.41,5.25,3.32,6.75,5.72c1.5,2.4,2.25,5.1,2.25,8.1c0,3.72-1.01,6.79-3.02,9.22c-2.01,2.43-4.67,4.19-7.96,5.27
		C442.56,31.95,444.64,32.88,446.53,34.38z M417.06,28.26h13.77c3.84,0,6.81-0.9,8.91-2.7c2.1-1.8,3.15-4.29,3.15-7.47
		c0-3.18-1.05-5.67-3.15-7.47c-2.1-1.8-5.13-2.7-9.09-2.7h-13.59V28.26z M441.09,54.27c2.28-1.92,3.42-4.59,3.42-8.01
		c0-3.48-1.2-6.22-3.6-8.23c-2.4-2.01-5.61-3.02-9.63-3.02h-14.22v22.14h14.49C435.63,57.15,438.81,56.19,441.09,54.27z"/>
	<path d="M501.12,49.95h-27.36l-5.04,13.95h-8.64l22.68-62.37h9.45L514.8,63.9h-8.64L501.12,49.95z M498.78,43.29l-11.34-31.68
		L476.1,43.29H498.78z"/>
	<path d="M532.89,57.24h21.96v6.66H524.7V1.17h8.19V57.24z"/>
</g>
</svg>
